<?xml version="1.0" encoding="utf-8"?>
<!-- Generator: Adobe Illustrator 16.0.0, SVG Export Plug-In . SVG Version: 6.00 Build 0)  -->
<!DOCTYPE svg PUBLIC "-//W3C//DTD SVG 1.1//EN" "http://www.w3.org/Graphics/SVG/1.1/DTD/svg11.dtd">
<svg version="1.1" id="Reinzeichnung" xmlns="http://www.w3.org/2000/svg" xmlns:xlink="http://www.w3.org/1999/xlink" x="0px"
	 y="0px" width="340.154px" height="146.835px" viewBox="0 0 340.154 146.835" enable-background="new 0 0 340.154 146.835"
	 xml:space="preserve">
<g>
	<path fill="#0F4075" d="M87.294,119.048l16.485,23.521v-23.521h2.148v26.963h-2.281L87.18,122.489v23.521h-2.148v-26.963H87.294z"
		/>
	<path fill="#0F4075" d="M125.03,129.221c1.736,1.914,2.605,4.323,2.605,7.226c0,0.418-0.014,0.735-0.038,0.951H111.53
		c0.177,2.142,0.96,3.872,2.348,5.19c1.389,1.318,3.128,1.978,5.22,1.978c2.599,0,4.557-0.849,5.876-2.548l1.901,0.817
		c-1.75,2.435-4.342,3.651-7.777,3.651c-2.966,0-5.33-0.938-7.092-2.814c-1.763-1.876-2.644-4.284-2.644-7.226
		c0-2.84,0.85-5.229,2.548-7.169c1.698-1.939,3.892-2.909,6.579-2.909C121.126,126.368,123.307,127.319,125.03,129.221z
		 M113.641,130.361c-1.28,1.344-1.99,3.112-2.13,5.306h13.957c-0.152-2.193-0.865-3.968-2.14-5.324
		c-1.273-1.356-2.89-2.035-4.849-2.035C116.521,128.308,114.908,128.992,113.641,130.361z"/>
	<path fill="#0F4075" d="M129.095,126.825h2.225l6.599,16.618l6.636-16.618h2.206l-7.683,19.186h-2.301L129.095,126.825z"/>
	<path fill="#0F4075" d="M163.887,129.221c1.736,1.914,2.605,4.323,2.605,7.226c0,0.418-0.014,0.735-0.038,0.951h-16.067
		c0.177,2.142,0.96,3.872,2.348,5.19c1.389,1.318,3.128,1.978,5.22,1.978c2.599,0,4.557-0.849,5.876-2.548l1.901,0.817
		c-1.75,2.435-4.342,3.651-7.777,3.651c-2.966,0-5.33-0.938-7.092-2.814c-1.763-1.876-2.644-4.284-2.644-7.226
		c0-2.84,0.85-5.229,2.548-7.169c1.698-1.939,3.892-2.909,6.579-2.909C159.982,126.368,162.163,127.319,163.887,129.221z
		 M152.497,130.361c-1.28,1.344-1.99,3.112-2.13,5.306h13.957c-0.152-2.193-0.865-3.968-2.14-5.324
		c-1.273-1.356-2.89-2.035-4.849-2.035C155.378,128.308,153.765,128.992,152.497,130.361z"/>
	<path fill="#0F4075" d="M179.146,126.368h0.285v2.473c-0.646-0.152-1.35-0.229-2.11-0.229c-1.167,0-2.219,0.374-3.156,1.122
		c-0.938,0.748-1.407,1.939-1.407,3.574v12.702h-2.054v-19.186h2.054v2.813c0.481-0.747,1.293-1.464,2.434-2.148
		S177.65,126.433,179.146,126.368z"/>
	<path fill="#0F4075" d="M198.678,126.35c1.166,0,2.281,0.196,3.347,0.59c1.103,0.405,2.123,1.026,3.061,1.863l-1.197,1.578
		c-0.786-0.773-1.616-1.331-2.491-1.674c-0.9-0.342-1.807-0.513-2.719-0.513c-1.331,0-2.428,0.323-3.29,0.97
		c-0.685,0.558-1.026,1.34-1.026,2.348s0.438,1.785,1.312,2.33c0.57,0.354,1.788,0.811,3.651,1.368
		c1.978,0.584,3.358,1.147,4.145,1.692c1.407,0.964,2.111,2.333,2.111,4.107c0,1.648-0.66,2.985-1.978,4.013
		c-1.23,0.988-2.871,1.482-4.925,1.482c-1.395,0-2.675-0.222-3.841-0.665c-1.167-0.431-2.263-1.142-3.29-2.13l1.255-1.616
		c0.85,0.913,1.762,1.568,2.738,1.968c0.976,0.399,2.021,0.6,3.138,0.6c1.432,0,2.598-0.323,3.498-0.97
		c0.875-0.723,1.312-1.617,1.312-2.682c0-1.191-0.444-2.041-1.331-2.548c-0.685-0.405-1.889-0.862-3.613-1.369
		c-2.18-0.659-3.562-1.198-4.145-1.616c-1.445-1.014-2.168-2.313-2.168-3.898c0-1.622,0.563-2.871,1.692-3.745
		C195.153,126.844,196.738,126.35,198.678,126.35z"/>
	<path fill="#0F4075" d="M217.744,145.155c-1.026,0.887-2.167,1.331-3.422,1.331c-2.738,0-4.107-1.509-4.107-4.525v-13.196h-2.586
		v-1.939h2.586v-6.123h2.054v6.123h3.556v1.939h-3.556v13.614c0,1.458,0.703,2.187,2.11,2.187c0.748,0,1.489-0.298,2.225-0.894
		L217.744,145.155z"/>
	<path fill="#0F4075" d="M227.276,126.368c1.584,0,3.017,0.384,4.297,1.15c1.28,0.768,2.313,1.823,3.1,3.166v-3.859h2.054v19.186
		h-2.054v-3.841c-0.786,1.344-1.819,2.399-3.1,3.166s-2.713,1.15-4.297,1.15c-2.562,0-4.678-0.947-6.352-2.843
		c-1.673-1.896-2.51-4.294-2.51-7.197c0-2.902,0.837-5.308,2.51-7.216C222.599,127.322,224.715,126.368,227.276,126.368z
		 M222.484,130.59c-1.318,1.509-1.978,3.458-1.978,5.847c0,2.39,0.656,4.342,1.968,5.856c1.312,1.516,3.023,2.272,5.134,2.272
		c2.111,0,3.828-0.757,5.153-2.272c1.324-1.515,1.987-3.467,1.987-5.856c0-2.389-0.663-4.341-1.987-5.856
		c-1.325-1.515-3.042-2.272-5.153-2.272C225.498,128.308,223.79,129.068,222.484,130.59z"/>
	<path fill="#0F4075" d="M250.923,126.35c2.091,0,3.786,0.682,5.086,2.044c1.299,1.363,1.949,3.229,1.949,5.6v12.018h-2.054v-12.436
		c0-1.534-0.491-2.798-1.474-3.794c-0.982-0.994-2.253-1.492-3.812-1.492c-1.661,0-3.188,0.618-4.582,1.854
		c-1.395,1.236-2.092,2.868-2.092,4.896v10.972h-2.054v-19.186h2.054v3.556c0.634-1.09,1.553-2.035,2.757-2.833
		C247.905,126.749,249.312,126.35,250.923,126.35z"/>
	<path fill="#0F4075" d="M277.537,119.048h2.054v26.963h-2.054v-3.841c-0.786,1.344-1.819,2.399-3.1,3.166s-2.713,1.15-4.297,1.15
		c-2.562,0-4.678-0.947-6.352-2.843c-1.673-1.896-2.51-4.294-2.51-7.197c0-2.902,0.837-5.308,2.51-7.216
		c1.674-1.908,3.79-2.862,6.352-2.862c1.584,0,3.017,0.384,4.297,1.15c1.28,0.768,2.313,1.823,3.1,3.166V119.048z M265.349,130.59
		c-1.331,1.509-1.997,3.458-1.997,5.847c0,2.39,0.656,4.342,1.969,5.856c1.312,1.516,3.026,2.272,5.144,2.272
		c2.116,0,3.834-0.757,5.152-2.272c1.318-1.515,1.978-3.467,1.978-5.856c0-2.389-0.659-4.341-1.978-5.856
		c-1.318-1.515-3.036-2.272-5.152-2.272C268.347,128.308,266.642,129.068,265.349,130.59z"/>
	<path fill="#0F4075" d="M300.357,126.35c1.166,0,2.281,0.196,3.347,0.59c1.103,0.405,2.123,1.026,3.061,1.863l-1.197,1.578
		c-0.786-0.773-1.616-1.331-2.491-1.674c-0.9-0.342-1.807-0.513-2.719-0.513c-1.331,0-2.428,0.323-3.29,0.97
		c-0.685,0.558-1.026,1.34-1.026,2.348s0.438,1.785,1.312,2.33c0.57,0.354,1.788,0.811,3.651,1.368
		c1.978,0.584,3.358,1.147,4.145,1.692c1.407,0.964,2.111,2.333,2.111,4.107c0,1.648-0.66,2.985-1.978,4.013
		c-1.23,0.988-2.871,1.482-4.925,1.482c-1.395,0-2.675-0.222-3.841-0.665c-1.167-0.431-2.263-1.142-3.29-2.13l1.255-1.616
		c0.85,0.913,1.762,1.568,2.738,1.968c0.976,0.399,2.021,0.6,3.138,0.6c1.432,0,2.598-0.323,3.498-0.97
		c0.875-0.723,1.312-1.617,1.312-2.682c0-1.191-0.444-2.041-1.331-2.548c-0.685-0.405-1.889-0.862-3.613-1.369
		c-2.18-0.659-3.562-1.198-4.145-1.616c-1.445-1.014-2.168-2.313-2.168-3.898c0-1.622,0.563-2.871,1.692-3.745
		C296.833,126.844,298.418,126.35,300.357,126.35z"/>
	<path fill="#0F4075" d="M320.125,145.155c-1.026,0.887-2.167,1.331-3.422,1.331c-2.738,0-4.107-1.509-4.107-4.525v-13.196h-2.586
		v-1.939h2.586v-6.123h2.054v6.123h3.556v1.939h-3.556v13.614c0,1.458,0.703,2.187,2.11,2.187c0.748,0,1.489-0.298,2.225-0.894
		L320.125,145.155z"/>
	<path fill="#0F4075" d="M324.589,119.847c0.444,0,0.83,0.165,1.16,0.494c0.292,0.305,0.443,0.672,0.456,1.103
		c0,0.457-0.158,0.844-0.475,1.16c-0.317,0.317-0.697,0.476-1.142,0.476c-0.456,0-0.849-0.158-1.179-0.476
		c-0.304-0.329-0.463-0.716-0.476-1.16c0.013-0.443,0.172-0.817,0.476-1.121C323.74,120.005,324.133,119.847,324.589,119.847z
		 M323.562,126.825h2.054v19.186h-2.054V126.825z"/>
	<path fill="#0F4075" d="M330.819,119.048h2.054v26.963h-2.054V119.048z"/>
	<path fill="#0F4075" d="M338.104,119.048h2.054v26.963h-2.054V119.048z"/>
</g>
<rect id="HG_Flaeche" x="85.039" fill="#0F4075" width="255.118" height="106.299"/>
<g>
	<rect id="Quadrat" x="198.359" y="72.146" fill="#BCD233" width="12.756" height="12.756"/>
	<g id="DAM">
		<g>
			<polygon fill="#FFFFFF" points="204.738,20.107 170.275,84.91 184.662,84.91 204.738,46.982 224.9,84.91 239.201,84.91 			"/>
			<path fill="#FFFFFF" d="M314.718,84.91h-12.756V54.012l-20.16,23.25l-20.182-23.25V84.91h-12.736V20.107l32.918,37.129
				l32.916-37.129V84.91z"/>
		</g>
		<path fill="#FFFFFF" d="M110.4,22.084h25.957c9.338,0,16.988,2.637,22.947,7.906c3.209,2.809,5.643,6.203,7.305,10.186
			s2.492,8.41,2.492,13.279c0,4.756-0.857,9.182-2.578,13.277c-1.719,4.098-4.125,7.551-7.219,10.357
			c-2.865,2.521-6.26,4.455-10.186,5.801c-3.924,1.348-8.18,2.02-12.762,2.02H110.4V22.084z M136.951,72.168
			c5.289,0,9.723-1.334,13.299-4.004c3.574-2.668,5.361-7.543,5.361-14.623s-1.801-11.955-5.404-14.625
			c-3.602-2.668-8.021-4.002-13.256-4.002h-13.877v37.254H136.951z"/>
	</g>
</g>
<rect x="55.275" fill="#0F4075" width="23.385" height="106.299"/>
<rect x="31.18" fill="#0F4075" width="17.717" height="106.299"/>
<rect x="12.756" fill="#0F4075" width="12.047" height="106.299"/>
<rect fill="#0F4075" width="6.377" height="106.299"/>
</svg>
